#!OML:ASF H:\Dans Jumps\Project 1\Capture day 1\Session 1\subject.ASF
:FULLY-SPECIFIED
:DEGREES
264
root 0.595455 15.9222 -15.1707 11.2893 -0.373635 -2.22783
lowerback 9.37775 -0.357959 -0.449874
upperback 5.7247 -0.499929 2.3234
thorax 0.707335 -0.299853 2.69737
lowerneck -16.7803 0.617343 -1.74942
upperneck 12.6937 1.31708 -0.393501
head 6.60966 0.512295 0.293937
rclavicle -7.55382e-015 -1.09332e-014
rhumerus -41.7655 -17.5705 -69.7842
rradius 23.9811
rwrist 31.7918
rhand -18.455 -26.3262
rfingers 7.12502
rthumb 7.83115 -56.1611
lclavicle -7.55382e-015 -1.09332e-014
lhumerus -38.09 0.659978 84.8446
lradius 16.0372
lwrist 8.38667
lhand -26.3963 -4.68141
lfingers 7.12502
lthumb 0.162981 25.2983
rfemur -42.7986 -4.68471 22.7712
rtibia 59.1188
rfoot -26.5514 -7.33555
rtoes 5.03019
lfemur -43.1948 10.7721 -20.9714
ltibia 58.7612
lfoot -24.9542 8.51888
ltoes -6.38055
265
root 0.595573 15.883 -15.1886 11.5126 -0.305315 -2.25776
lowerback 9.57202 -0.367398 -0.41314
upperback 5.75092 -0.508081 2.34337
thorax 0.628779 -0.302922 2.7001
lowerneck -16.8353 0.620613 -1.74211
upperneck 12.5065 1.32451 -0.428968
head 6.55874 0.514848 0.281626
rclavicle 9.0447e-015 -8.54774e-015
rhumerus -42.0384 -17.7313 -69.5438
rradius 23.9038
rwrist 31.9719
rhand -18.4328 -26.3323
rfingers 7.12502
rthumb 7.85261 -56.1665
lclavicle 9.0447e-015 -8.54774e-015
lhumerus -38.3244 0.895502 84.7465
lradius 15.8681
lwrist 8.11569
lhand -26.3124 -4.61658
lfingers 7.12502
lthumb 0.244008 25.363
rfemur -43.4461 -4.67653 22.8421
rtibia 59.7385
rfoot -26.81 -7.60405
rtoes 5.02408
lfemur -43.8658 10.6172 -20.9844
ltibia 59.4018
lfoot -25.1948 8.87017
ltoes -6.6278
266
root 0.595736 15.8457 -15.2053 11.7373 -0.234886 -2.27284
lowerback 9.76805 -0.376699 -0.393312
upperback 5.77262 -0.517086 2.3627
thorax 0.5449 -0.306747 2.7119
lowerneck -16.8895 0.623044 -1.73631
upperneck 12.3307 1.33114 -0.464136
head 6.5114 0.516879 0.26963
rclavicle 1.14301e-014 -2.06736e-014
rhumerus -42.2981 -17.8803 -69.3129
rradius 23.8268
rwrist 32.1471
rhand -18.3962 -26.357
rfingers 7.12502
rthumb 7.88793 -56.1899
lclavicle 1.14301e-014 -2.06736e-014
lhumerus -38.5471 1.13239 84.6564
lradius 15.6997
lwrist 7.87526
lhand -26.2393 -4.58769
lfingers 7.12502
lthumb 0.314662 25.3918
rfemur -44.0743 -4.66809 22.8955
rtibia 60.3305
rfoot -27.0847 -7.87844
rtoes 4.96686
lfemur -44.5113 10.4492 -21.0088
ltibia 60.0056
lfoot -25.4402 9.26393
ltoes -7.01035
267
root 0.59592 15.8106 -15.2209 11.9667 -0.163318 -2.27457
lowerback 9.95859 -0.385089 -0.386336
upperback 5.7926 -0.525832 2.37912
thorax 0.4624 -0.310695 2.72793
lowerneck -16.949 0.623384 -1.73429
upperneck 12.166 1.3346 -0.490423
head 6.46848 0.51787 0.260853
rclavicle 2.28602e-015 -1.66979e-014
rhumerus -42.5397 -18.0246 -69.0938
rradius 23.7456
rwrist 32.3262
rhand -18.3557 -26.3913
rfingers 7.12502
rthumb 7.92707 -56.2227
lclavicle 2.28602e-015 -1.66979e-014
lhumerus -38.7423 1.3743 84.565
lradius 15.519
lwrist 7.63944
lhand -26.1746 -4.57853
lfingers 7.12502
lthumb 0.377159 25.4009
rfemur -44.6859 -4.66091 22.9336
rtibia 60.8928
rfoot -27.3766 -8.154
rtoes 4.82485
lfemur -45.1343 10.2691 -21.0437
ltibia 60.5698
lfoot -25.6781 9.69836
ltoes -7.52268
268
root 0.596031 15.7778 -15.2355 12.1987 -0.0879427 -2.26863
lowerback 10.1481 -0.393229 -0.386482
upperback 5.81017 -0.534731 2.39461
thorax 0.378157 -0.314828 2.74711
lowerneck -17.0062 0.621893 -1.7368
upperneck 12.0066 1.33533 -0.508535
head 6.4268 0.518012 0.255176
rclavicle -2.98177e-016 -5.76476e-015
rhumerus -42.7631 -18.1506 -68.897
rradius 23.6742
rwrist 32.4886
rhand -18.289 -26.4458
rfingers 7.12502
rthumb 7.99145 -56.2747
lclavicle -2.98177e-016 -5.76476e-015
lhumerus -38.9136 1.62535 84.4687
lradius 15.3337
lwrist 7.39027
lhand -26.1066 -4.55625
lfingers 7.12502
lthumb 0.4428 25.423
rfemur -45.2791 -4.65582 22.9634
rtibia 61.4239
rfoot -27.6838 -8.42376
rtoes 4.60804
lfemur -45.7359 10.0767 -21.0813
ltibia 61.0946
lfoot -25.8982 10.1606
ltoes -8.11504
269
root 0.596025 15.747 -15.2491 12.4338 -0.0103373 -2.25708
lowerback 10.3398 -0.399846 -0.391866
upperback 5.82201 -0.541901 2.40849
thorax 0.286799 -0.318075 2.76755
lowerneck -17.0558 0.617921 -1.73981
upperneck 11.8517 1.33147 -0.518897
head 6.38529 0.516575 0.251592
rclavicle -1.28216e-014 6.16232e-015
rhumerus -42.9761 -18.267 -68.7156
rradius 23.6116
rwrist 32.6458
rhand -18.2072 -26.4879
rfingers 7.12502
rthumb 8.07036 -56.3138
lclavicle -1.28216e-014 6.16232e-015
lhumerus -39.0627 1.87618 84.3694
lradius 15.1416
lwrist 7.12059
lhand -26.0376 -4.52958
lfingers 7.12502
lthumb 0.509478 25.4496
rfemur -45.8565 -4.65176 22.9888
rtibia 61.9242
rfoot -27.9906 -8.70837
rtoes 4.27746
lfemur -46.3189 9.87592 -21.1201
ltibia 61.5828
lfoot -26.0927 10.6379
ltoes -8.73563
270
root 0.595964 15.7182 -15.2619 12.6724 0.0700456 -2.24433
lowerback 10.5314 -0.404908 -0.397634
upperback 5.82946 -0.546946 2.42241
thorax 0.190894 -0.320179 2.78813
lowerneck -17.0965 0.612481 -1.73829
upperneck 11.6967 1.32439 -0.529742
head 6.34233 0.513788 0.246759
rclavicle -5.86415e-015 1.61016e-014
rhumerus -43.1752 -18.3633 -68.5585
rradius 23.5685
rwrist 32.7638
rhand -18.1002 -26.5187
rfingers 7.12502
rthumb 8.17363 -56.3406
lclavicle -5.86415e-015 1.61016e-014
lhumerus -39.1917 2.12618 84.2683
lradius 14.9509
lwrist 6.82488
lhand -25.9621 -4.48443
lfingers 7.12502
lthumb 0.582394 25.4945
rfemur -46.4191 -4.64729 23.0138
rtibia 62.3952
rfoot -28.293 -9.01126
rtoes 3.86621
lfemur -46.8852 9.66983 -21.1556
ltibia 62.0379
lfoot -26.2615 11.1142
ltoes -9.33146
271
root 0.595843 15.6912 -15.2738 12.9166 0.151875 -2.23118
lowerback 10.7256 -0.40816 -0.405211
upperback 5.82993 -0.549576 2.43755
thorax 0.0863283 -0.320992 2.81089
lowerneck -17.1343 0.604682 -1.7399
upperneck 11.5461 1.31372 -0.533188
head 6.30027 0.509721 0.244453
rclavicle -1.98785e-016 -6.36111e-015
rhumerus -43.3625 -18.447 -68.4187
rradius 23.537
rwrist 32.8727
rhand -18.0016 -26.5273
rfingers 7.12502
rthumb 8.2688 -56.3455
lclavicle -1.98785e-016 -6.36111e-015
lhumerus -39.3076 2.3581 84.1784
lradius 14.7715
lwrist 6.52685
lhand -25.8912 -4.45668
lfingers 7.12502
lthumb 0.650838 25.5221
rfemur -46.9714 -4.64066 23.0388
rtibia 62.8392
rfoot -28.5755 -9.34844
rtoes 3.41634
lfemur -47.4393 9.45801 -21.1873
ltibia 62.4629
lfoot -26.4033 11.5822
ltoes -9.8709
272
root 0.595751 15.6657 -15.2848 13.167 0.236788 -2.21877
lowerback 10.9237 -0.410226 -0.411845
upperback 5.82257 -0.55033 2.45479
thorax -0.0285279 -0.320707 2.83526
lowerneck -17.1698 0.594355 -1.74055
upperneck 11.3991 1.29959 -0.537798
head 6.25907 0.503891 0.241275
rclavicle -1.13307e-014 3.22031e-014
rhumerus -43.5426 -18.5035 -68.3033
rradius 23.5248
rwrist 32.9592
rhand -17.9207 -26.5305
rfingers 7.12502
rthumb 8.34685 -56.3456
lclavicle -1.13307e-014 3.22031e-014
lhumerus -39.4158 2.56677 84.1051
lradius 14.6077
lwrist 6.23119
lhand -25.8493 -4.47495
lfingers 7.12502
lthumb 0.691248 25.5037
rfemur -47.5133 -4.63368 23.0643
rtibia 63.2586
rfoot -28.8327 -9.72296
rtoes 2.97886
lfemur -47.9818 9.24094 -21.2145
ltibia 62.86
lfoot -26.5207 12.043
ltoes -10.3553
273
root 0.595703 15.6419 -15.2949 13.4251 0.323756 -2.20302
lowerback 11.1199 -0.412032 -0.422153
upperback 5.81059 -0.550975 2.47362
thorax -0.147013 -0.320372 2.86342
lowerneck -17.2027 0.582562 -1.74232
upperneck 11.2481 1.28404 -0.54499
head 6.21617 0.497148 0.237292
rclavicle -1.25234e-014 1.72943e-014
rhumerus -43.705 -18.5405 -68.2115
rradius 23.5255
rwrist 33.0225
rhand -17.8528 -26.5248
rfingers 7.12502
rthumb 8.4124 -56.3372
lclavicle -1.25234e-014 1.72943e-014
lhumerus -39.5139 2.75361 84.0511
lradius 14.4627
lwrist 5.95405
lhand -25.8393 -4.54476
lfingers 7.12502
lthumb 0.700951 25.4338
rfemur -48.0443 -4.62832 23.0849
rtibia 63.6542
rfoot -29.0717 -10.1214
rtoes 2.61363
lfemur -48.5118 9.01615 -21.2412
ltibia 63.2295
lfoot -26.6173 12.4969
ltoes -10.7818
274
root 0.595654 15.62 -15.3038 13.6889 0.413587 -2.18312
lowerback 11.3146 -0.414704 -0.434939
upperback 5.79455 -0.552921 2.49269
thorax -0.268692 -0.320644 2.89344
lowerneck -17.2302 0.568138 -1.75241
upperneck 11.0911 1.26598 -0.547292
head 6.17044 0.48932 0.235935
rclavicle -2.48481e-015 -1.13307e-014
rhumerus -43.8523 -18.5504 -68.1475
rradius 23.5413
rwrist 33.0526
rhand -17.7957 -26.5177
rfingers 7.12502
rthumb 8.46746 -56.328
lclavicle -2.48481e-015 -1.13307e-014
lhumerus -39.6072 2.91485 84.0171
lradius 14.3442
lwrist 5.71691
lhand -25.8641 -4.67021
lfingers 7.12502
lthumb 0.677 25.3085
rfemur -48.5603 -4.62708 23.1002
rtibia 64.0261
rfoot -29.3007 -10.5218
rtoes 2.36004
lfemur -49.0257 8.78407 -21.2674
ltibia 63.5715
lfoot -26.6973 12.9405
ltoes -11.1257
275
root 0.595537 15.6 -15.3114 13.9616 0.507004 -2.16438
lowerback 11.502 -0.41861 -0.444188
upperback 5.77696 -0.55617 2.5124
thorax -0.387935 -0.321471 2.92226
lowerneck -17.2604 0.551282 -1.76779
upperneck 10.9313 1.24537 -0.545762
head 6.12423 0.480373 0.23641
rclavicle -2.68359e-015 -2.38542e-014
rhumerus -43.9782 -18.5404 -68.1133
rradius 23.5672
rwrist 33.0455
rhand -17.7589 -26.5069
rfingers 7.12502
rthumb 8.50303 -56.3157
lclavicle -2.68359e-015 -2.38542e-014
lhumerus -39.6891 3.04851 84.0023
lradius 14.2507
lwrist 5.54029
lhand -25.915 -4.81857
lfingers 7.12502
lthumb 0.627812 25.1602
rfemur -49.0643 -4.63079 23.1178
rtibia 64.373
rfoot -29.5318 -10.8998
rtoes 2.21734
lfemur -49.528 8.54742 -21.288
ltibia 63.8866
lfoot -26.7577 13.3767
ltoes -11.3721
